<mxfile host="app.diagrams.net" modified="2023-03-13T07:44:06.054Z" agent="5.0 (Windows NT 10.0; Win64; x64) AppleWebKit/537.36 (KHTML, like Gecko) Chrome/111.0.0.0 Safari/537.36" etag="8xUkOdPql1R1RtGIZgVa" version="21.0.6" type="github">
  <diagram id="SxIJ2LlRQHvGSV_vCLlB" name="ページ1">
    <mxGraphModel dx="1728" dy="957" grid="1" gridSize="10" guides="1" tooltips="1" connect="1" arrows="1" fold="1" page="1" pageScale="1" pageWidth="1169" pageHeight="827" math="0" shadow="0">
      <root>
        <mxCell id="0" />
        <mxCell id="1" parent="0" />
        <mxCell id="drFdQ-J8PyUqmCF1jSi9-41" style="edgeStyle=orthogonalEdgeStyle;rounded=0;orthogonalLoop=1;jettySize=auto;html=1;entryX=0;entryY=0.5;entryDx=0;entryDy=0;entryPerimeter=0;" edge="1" parent="1" source="drFdQ-J8PyUqmCF1jSi9-1" target="drFdQ-J8PyUqmCF1jSi9-3">
          <mxGeometry relative="1" as="geometry" />
        </mxCell>
        <mxCell id="drFdQ-J8PyUqmCF1jSi9-1" value="" style="sketch=0;outlineConnect=0;fontColor=#232F3E;gradientColor=none;fillColor=#2E27AD;strokeColor=none;dashed=0;verticalLabelPosition=bottom;verticalAlign=top;align=center;html=1;fontSize=12;fontStyle=0;aspect=fixed;pointerEvents=1;shape=mxgraph.aws4.rds_proxy;" vertex="1" parent="1">
          <mxGeometry x="90" y="200" width="78" height="78" as="geometry" />
        </mxCell>
        <mxCell id="drFdQ-J8PyUqmCF1jSi9-40" style="edgeStyle=orthogonalEdgeStyle;rounded=0;orthogonalLoop=1;jettySize=auto;html=1;exitX=0.5;exitY=0;exitDx=0;exitDy=0;exitPerimeter=0;" edge="1" parent="1" source="drFdQ-J8PyUqmCF1jSi9-2" target="drFdQ-J8PyUqmCF1jSi9-1">
          <mxGeometry relative="1" as="geometry" />
        </mxCell>
        <mxCell id="drFdQ-J8PyUqmCF1jSi9-2" value="" style="sketch=0;points=[[0,0,0],[0.25,0,0],[0.5,0,0],[0.75,0,0],[1,0,0],[0,1,0],[0.25,1,0],[0.5,1,0],[0.75,1,0],[1,1,0],[0,0.25,0],[0,0.5,0],[0,0.75,0],[1,0.25,0],[1,0.5,0],[1,0.75,0]];outlineConnect=0;fontColor=#232F3E;gradientColor=#4D72F3;gradientDirection=north;fillColor=#3334B9;strokeColor=#ffffff;dashed=0;verticalLabelPosition=bottom;verticalAlign=top;align=center;html=1;fontSize=12;fontStyle=0;aspect=fixed;shape=mxgraph.aws4.resourceIcon;resIcon=mxgraph.aws4.rds;" vertex="1" parent="1">
          <mxGeometry x="90" y="402" width="78" height="78" as="geometry" />
        </mxCell>
        <mxCell id="drFdQ-J8PyUqmCF1jSi9-42" style="edgeStyle=orthogonalEdgeStyle;rounded=0;orthogonalLoop=1;jettySize=auto;html=1;exitX=1;exitY=0.5;exitDx=0;exitDy=0;exitPerimeter=0;entryX=0;entryY=0.5;entryDx=0;entryDy=0;entryPerimeter=0;" edge="1" parent="1" source="drFdQ-J8PyUqmCF1jSi9-3" target="drFdQ-J8PyUqmCF1jSi9-4">
          <mxGeometry relative="1" as="geometry" />
        </mxCell>
        <mxCell id="drFdQ-J8PyUqmCF1jSi9-44" style="edgeStyle=orthogonalEdgeStyle;rounded=0;orthogonalLoop=1;jettySize=auto;html=1;exitX=0;exitY=0.75;exitDx=0;exitDy=0;exitPerimeter=0;entryX=0;entryY=0.25;entryDx=0;entryDy=0;entryPerimeter=0;" edge="1" parent="1" source="drFdQ-J8PyUqmCF1jSi9-3" target="drFdQ-J8PyUqmCF1jSi9-7">
          <mxGeometry relative="1" as="geometry" />
        </mxCell>
        <mxCell id="drFdQ-J8PyUqmCF1jSi9-3" value="" style="sketch=0;points=[[0,0,0],[0.25,0,0],[0.5,0,0],[0.75,0,0],[1,0,0],[0,1,0],[0.25,1,0],[0.5,1,0],[0.75,1,0],[1,1,0],[0,0.25,0],[0,0.5,0],[0,0.75,0],[1,0.25,0],[1,0.5,0],[1,0.75,0]];outlineConnect=0;fontColor=#232F3E;gradientColor=#F78E04;gradientDirection=north;fillColor=#D05C17;strokeColor=#ffffff;dashed=0;verticalLabelPosition=bottom;verticalAlign=top;align=center;html=1;fontSize=12;fontStyle=0;aspect=fixed;shape=mxgraph.aws4.resourceIcon;resIcon=mxgraph.aws4.lambda;" vertex="1" parent="1">
          <mxGeometry x="330" y="200" width="78" height="78" as="geometry" />
        </mxCell>
        <mxCell id="drFdQ-J8PyUqmCF1jSi9-4" value="" style="sketch=0;points=[[0,0,0],[0.25,0,0],[0.5,0,0],[0.75,0,0],[1,0,0],[0,1,0],[0.25,1,0],[0.5,1,0],[0.75,1,0],[1,1,0],[0,0.25,0],[0,0.5,0],[0,0.75,0],[1,0.25,0],[1,0.5,0],[1,0.75,0]];outlineConnect=0;fontColor=#232F3E;gradientColor=#FF4F8B;gradientDirection=north;fillColor=#BC1356;strokeColor=#ffffff;dashed=0;verticalLabelPosition=bottom;verticalAlign=top;align=center;html=1;fontSize=12;fontStyle=0;aspect=fixed;shape=mxgraph.aws4.resourceIcon;resIcon=mxgraph.aws4.api_gateway;" vertex="1" parent="1">
          <mxGeometry x="560" y="200" width="78" height="78" as="geometry" />
        </mxCell>
        <mxCell id="drFdQ-J8PyUqmCF1jSi9-49" style="edgeStyle=orthogonalEdgeStyle;rounded=0;orthogonalLoop=1;jettySize=auto;html=1;exitX=0.5;exitY=1;exitDx=0;exitDy=0;exitPerimeter=0;" edge="1" parent="1" source="drFdQ-J8PyUqmCF1jSi9-5" target="drFdQ-J8PyUqmCF1jSi9-9">
          <mxGeometry relative="1" as="geometry" />
        </mxCell>
        <mxCell id="drFdQ-J8PyUqmCF1jSi9-5" value="" style="sketch=0;points=[[0,0,0],[0.25,0,0],[0.5,0,0],[0.75,0,0],[1,0,0],[0,1,0],[0.25,1,0],[0.5,1,0],[0.75,1,0],[1,1,0],[0,0.25,0],[0,0.5,0],[0,0.75,0],[1,0.25,0],[1,0.5,0],[1,0.75,0]];outlineConnect=0;fontColor=#232F3E;gradientColor=#945DF2;gradientDirection=north;fillColor=#5A30B5;strokeColor=#ffffff;dashed=0;verticalLabelPosition=bottom;verticalAlign=top;align=center;html=1;fontSize=12;fontStyle=0;aspect=fixed;shape=mxgraph.aws4.resourceIcon;resIcon=mxgraph.aws4.cloudfront;" vertex="1" parent="1">
          <mxGeometry x="601" y="320" width="78" height="78" as="geometry" />
        </mxCell>
        <mxCell id="drFdQ-J8PyUqmCF1jSi9-43" style="edgeStyle=orthogonalEdgeStyle;rounded=0;orthogonalLoop=1;jettySize=auto;html=1;exitX=0.5;exitY=0;exitDx=0;exitDy=0;exitPerimeter=0;entryX=0.5;entryY=1;entryDx=0;entryDy=0;entryPerimeter=0;" edge="1" parent="1" source="drFdQ-J8PyUqmCF1jSi9-6" target="drFdQ-J8PyUqmCF1jSi9-3">
          <mxGeometry relative="1" as="geometry" />
        </mxCell>
        <mxCell id="drFdQ-J8PyUqmCF1jSi9-47" style="edgeStyle=orthogonalEdgeStyle;rounded=0;orthogonalLoop=1;jettySize=auto;html=1;exitX=0;exitY=0.5;exitDx=0;exitDy=0;exitPerimeter=0;entryX=1;entryY=0.25;entryDx=0;entryDy=0;entryPerimeter=0;" edge="1" parent="1" source="drFdQ-J8PyUqmCF1jSi9-6" target="drFdQ-J8PyUqmCF1jSi9-2">
          <mxGeometry relative="1" as="geometry" />
        </mxCell>
        <mxCell id="drFdQ-J8PyUqmCF1jSi9-48" style="edgeStyle=orthogonalEdgeStyle;rounded=0;orthogonalLoop=1;jettySize=auto;html=1;exitX=1;exitY=0.75;exitDx=0;exitDy=0;exitPerimeter=0;entryX=0.25;entryY=0;entryDx=0;entryDy=0;entryPerimeter=0;" edge="1" parent="1" source="drFdQ-J8PyUqmCF1jSi9-6" target="drFdQ-J8PyUqmCF1jSi9-9">
          <mxGeometry relative="1" as="geometry" />
        </mxCell>
        <mxCell id="drFdQ-J8PyUqmCF1jSi9-6" value="" style="sketch=0;points=[[0,0,0],[0.25,0,0],[0.5,0,0],[0.75,0,0],[1,0,0],[0,1,0],[0.25,1,0],[0.5,1,0],[0.75,1,0],[1,1,0],[0,0.25,0],[0,0.5,0],[0,0.75,0],[1,0.25,0],[1,0.5,0],[1,0.75,0]];outlineConnect=0;fontColor=#232F3E;gradientColor=#F78E04;gradientDirection=north;fillColor=#D05C17;strokeColor=#ffffff;dashed=0;verticalLabelPosition=bottom;verticalAlign=top;align=center;html=1;fontSize=12;fontStyle=0;aspect=fixed;shape=mxgraph.aws4.resourceIcon;resIcon=mxgraph.aws4.ec2;" vertex="1" parent="1">
          <mxGeometry x="330" y="360" width="78" height="78" as="geometry" />
        </mxCell>
        <mxCell id="drFdQ-J8PyUqmCF1jSi9-7" value="" style="sketch=0;points=[[0,0,0],[0.25,0,0],[0.5,0,0],[0.75,0,0],[1,0,0],[0,1,0],[0.25,1,0],[0.5,1,0],[0.75,1,0],[1,1,0],[0,0.25,0],[0,0.5,0],[0,0.75,0],[1,0.25,0],[1,0.5,0],[1,0.75,0]];outlineConnect=0;fontColor=#232F3E;gradientColor=#4D72F3;gradientDirection=north;fillColor=#3334B9;strokeColor=#ffffff;dashed=0;verticalLabelPosition=bottom;verticalAlign=top;align=center;html=1;fontSize=12;fontStyle=0;aspect=fixed;shape=mxgraph.aws4.resourceIcon;resIcon=mxgraph.aws4.neptune;" vertex="1" parent="1">
          <mxGeometry x="330" y="480" width="78" height="78" as="geometry" />
        </mxCell>
        <mxCell id="drFdQ-J8PyUqmCF1jSi9-8" value="" style="sketch=0;points=[[0,0,0],[0.25,0,0],[0.5,0,0],[0.75,0,0],[1,0,0],[0,1,0],[0.25,1,0],[0.5,1,0],[0.75,1,0],[1,1,0],[0,0.25,0],[0,0.5,0],[0,0.75,0],[1,0.25,0],[1,0.5,0],[1,0.75,0]];outlineConnect=0;fontColor=#232F3E;gradientColor=#945DF2;gradientDirection=north;fillColor=#5A30B5;strokeColor=#ffffff;dashed=0;verticalLabelPosition=bottom;verticalAlign=top;align=center;html=1;fontSize=12;fontStyle=0;aspect=fixed;shape=mxgraph.aws4.resourceIcon;resIcon=mxgraph.aws4.elastic_load_balancing;" vertex="1" parent="1">
          <mxGeometry x="681" y="745" width="78" height="78" as="geometry" />
        </mxCell>
        <mxCell id="drFdQ-J8PyUqmCF1jSi9-9" value="" style="sketch=0;points=[[0,0,0],[0.25,0,0],[0.5,0,0],[0.75,0,0],[1,0,0],[0,1,0],[0.25,1,0],[0.5,1,0],[0.75,1,0],[1,1,0],[0,0.25,0],[0,0.5,0],[0,0.75,0],[1,0.25,0],[1,0.5,0],[1,0.75,0]];outlineConnect=0;fontColor=#232F3E;gradientColor=#60A337;gradientDirection=north;fillColor=#277116;strokeColor=#ffffff;dashed=0;verticalLabelPosition=bottom;verticalAlign=top;align=center;html=1;fontSize=12;fontStyle=0;aspect=fixed;shape=mxgraph.aws4.resourceIcon;resIcon=mxgraph.aws4.s3;" vertex="1" parent="1">
          <mxGeometry x="560" y="585" width="78" height="78" as="geometry" />
        </mxCell>
        <mxCell id="drFdQ-J8PyUqmCF1jSi9-10" value="prd02-vpc" style="text;strokeColor=none;align=center;fillColor=none;html=1;verticalAlign=middle;whiteSpace=wrap;rounded=0;" vertex="1" parent="1">
          <mxGeometry x="180" y="82" width="60" height="30" as="geometry" />
        </mxCell>
        <mxCell id="drFdQ-J8PyUqmCF1jSi9-11" value="" style="outlineConnect=0;dashed=0;verticalLabelPosition=bottom;verticalAlign=top;align=center;html=1;shape=mxgraph.aws3.virtual_private_cloud;fillColor=#F58534;gradientColor=none;" vertex="1" parent="1">
          <mxGeometry x="90" y="70" width="79.5" height="54" as="geometry" />
        </mxCell>
        <mxCell id="drFdQ-J8PyUqmCF1jSi9-12" value="proxy-charadb-ip-mng01" style="text;strokeColor=none;align=center;fillColor=none;html=1;verticalAlign=middle;whiteSpace=wrap;rounded=0;" vertex="1" parent="1">
          <mxGeometry x="59.75" y="278" width="140" height="30" as="geometry" />
        </mxCell>
        <mxCell id="drFdQ-J8PyUqmCF1jSi9-14" value="charadb-ip-mng01" style="text;strokeColor=none;align=center;fillColor=none;html=1;verticalAlign=middle;whiteSpace=wrap;rounded=0;" vertex="1" parent="1">
          <mxGeometry x="59" y="480" width="140" height="30" as="geometry" />
        </mxCell>
        <mxCell id="drFdQ-J8PyUqmCF1jSi9-15" value="ip-api.charaos.com" style="text;strokeColor=none;align=center;fillColor=none;html=1;verticalAlign=middle;whiteSpace=wrap;rounded=0;" vertex="1" parent="1">
          <mxGeometry x="529" y="278" width="140" height="30" as="geometry" />
        </mxCell>
        <mxCell id="drFdQ-J8PyUqmCF1jSi9-45" style="edgeStyle=orthogonalEdgeStyle;rounded=0;orthogonalLoop=1;jettySize=auto;html=1;exitX=0.5;exitY=0;exitDx=0;exitDy=0;exitPerimeter=0;entryX=0.526;entryY=-0.074;entryDx=0;entryDy=0;entryPerimeter=0;" edge="1" parent="1" source="drFdQ-J8PyUqmCF1jSi9-17" target="drFdQ-J8PyUqmCF1jSi9-32">
          <mxGeometry relative="1" as="geometry" />
        </mxCell>
        <mxCell id="drFdQ-J8PyUqmCF1jSi9-46" style="edgeStyle=orthogonalEdgeStyle;rounded=0;orthogonalLoop=1;jettySize=auto;html=1;exitX=0;exitY=0.5;exitDx=0;exitDy=0;exitPerimeter=0;entryX=1;entryY=0.5;entryDx=0;entryDy=0;entryPerimeter=0;" edge="1" parent="1" source="drFdQ-J8PyUqmCF1jSi9-17" target="drFdQ-J8PyUqmCF1jSi9-2">
          <mxGeometry relative="1" as="geometry" />
        </mxCell>
        <mxCell id="drFdQ-J8PyUqmCF1jSi9-51" style="edgeStyle=orthogonalEdgeStyle;rounded=0;orthogonalLoop=1;jettySize=auto;html=1;exitX=1;exitY=0.5;exitDx=0;exitDy=0;exitPerimeter=0;entryX=0;entryY=0.5;entryDx=0;entryDy=0;entryPerimeter=0;" edge="1" parent="1" source="drFdQ-J8PyUqmCF1jSi9-17" target="drFdQ-J8PyUqmCF1jSi9-9">
          <mxGeometry relative="1" as="geometry" />
        </mxCell>
        <mxCell id="drFdQ-J8PyUqmCF1jSi9-52" style="edgeStyle=orthogonalEdgeStyle;rounded=0;orthogonalLoop=1;jettySize=auto;html=1;exitX=1;exitY=0.75;exitDx=0;exitDy=0;exitPerimeter=0;entryX=0;entryY=0.5;entryDx=0;entryDy=0;entryPerimeter=0;" edge="1" parent="1" source="drFdQ-J8PyUqmCF1jSi9-17" target="drFdQ-J8PyUqmCF1jSi9-8">
          <mxGeometry relative="1" as="geometry" />
        </mxCell>
        <mxCell id="drFdQ-J8PyUqmCF1jSi9-17" value="" style="sketch=0;points=[[0,0,0],[0.25,0,0],[0.5,0,0],[0.75,0,0],[1,0,0],[0,1,0],[0.25,1,0],[0.5,1,0],[0.75,1,0],[1,1,0],[0,0.25,0],[0,0.5,0],[0,0.75,0],[1,0.25,0],[1,0.5,0],[1,0.75,0]];outlineConnect=0;fontColor=#232F3E;gradientColor=#F78E04;gradientDirection=north;fillColor=#D05C17;strokeColor=#ffffff;dashed=0;verticalLabelPosition=bottom;verticalAlign=top;align=center;html=1;fontSize=12;fontStyle=0;aspect=fixed;shape=mxgraph.aws4.resourceIcon;resIcon=mxgraph.aws4.ec2;" vertex="1" parent="1">
          <mxGeometry x="330" y="613.92" width="78" height="78" as="geometry" />
        </mxCell>
        <mxCell id="drFdQ-J8PyUqmCF1jSi9-18" value="" style="sketch=0;outlineConnect=0;fontColor=#232F3E;gradientColor=none;fillColor=#3F8624;strokeColor=none;dashed=0;verticalLabelPosition=bottom;verticalAlign=top;align=center;html=1;fontSize=12;fontStyle=0;aspect=fixed;pointerEvents=1;shape=mxgraph.aws4.bucket;" vertex="1" parent="1">
          <mxGeometry x="650.15" y="585" width="19.23" height="20" as="geometry" />
        </mxCell>
        <mxCell id="drFdQ-J8PyUqmCF1jSi9-19" value="charadb-deploy01" style="text;html=1;align=center;verticalAlign=middle;resizable=0;points=[];autosize=1;strokeColor=none;fillColor=none;" vertex="1" parent="1">
          <mxGeometry x="305" y="438" width="120" height="30" as="geometry" />
        </mxCell>
        <mxCell id="drFdQ-J8PyUqmCF1jSi9-20" value="ip-search.charaos.com" style="text;html=1;align=center;verticalAlign=middle;resizable=0;points=[];autosize=1;strokeColor=none;fillColor=none;" vertex="1" parent="1">
          <mxGeometry x="570" y="398" width="140" height="30" as="geometry" />
        </mxCell>
        <mxCell id="drFdQ-J8PyUqmCF1jSi9-22" value="" style="sketch=0;outlineConnect=0;fontColor=#232F3E;gradientColor=none;fillColor=#3F8624;strokeColor=none;dashed=0;verticalLabelPosition=bottom;verticalAlign=top;align=center;html=1;fontSize=12;fontStyle=0;aspect=fixed;pointerEvents=1;shape=mxgraph.aws4.bucket;" vertex="1" parent="1">
          <mxGeometry x="649.62" y="613.9200000000001" width="19.38" height="20.16" as="geometry" />
        </mxCell>
        <mxCell id="drFdQ-J8PyUqmCF1jSi9-23" value="" style="sketch=0;outlineConnect=0;fontColor=#232F3E;gradientColor=none;fillColor=#3F8624;strokeColor=none;dashed=0;verticalLabelPosition=bottom;verticalAlign=top;align=center;html=1;fontSize=12;fontStyle=0;aspect=fixed;pointerEvents=1;shape=mxgraph.aws4.bucket;" vertex="1" parent="1">
          <mxGeometry x="650.15" y="642.84" width="19.38" height="20.16" as="geometry" />
        </mxCell>
        <mxCell id="drFdQ-J8PyUqmCF1jSi9-24" value="ip-search-charaos" style="text;html=1;align=left;verticalAlign=middle;resizable=0;points=[];autosize=1;strokeColor=none;fillColor=none;" vertex="1" parent="1">
          <mxGeometry x="680" y="580" width="120" height="30" as="geometry" />
        </mxCell>
        <mxCell id="drFdQ-J8PyUqmCF1jSi9-25" value="ip-admin-charaos" style="text;html=1;align=left;verticalAlign=middle;resizable=0;points=[];autosize=1;strokeColor=none;fillColor=none;" vertex="1" parent="1">
          <mxGeometry x="680" y="609" width="120" height="30" as="geometry" />
        </mxCell>
        <mxCell id="drFdQ-J8PyUqmCF1jSi9-26" value="charadb-ip-load" style="text;html=1;align=left;verticalAlign=middle;resizable=0;points=[];autosize=1;strokeColor=none;fillColor=none;" vertex="1" parent="1">
          <mxGeometry x="680" y="637.92" width="110" height="30" as="geometry" />
        </mxCell>
        <mxCell id="drFdQ-J8PyUqmCF1jSi9-53" style="edgeStyle=orthogonalEdgeStyle;rounded=0;orthogonalLoop=1;jettySize=auto;html=1;exitX=1;exitY=0.5;exitDx=0;exitDy=0;exitPerimeter=0;" edge="1" parent="1" source="drFdQ-J8PyUqmCF1jSi9-28" target="drFdQ-J8PyUqmCF1jSi9-36">
          <mxGeometry relative="1" as="geometry" />
        </mxCell>
        <mxCell id="drFdQ-J8PyUqmCF1jSi9-54" style="edgeStyle=orthogonalEdgeStyle;rounded=0;orthogonalLoop=1;jettySize=auto;html=1;exitX=0.5;exitY=0;exitDx=0;exitDy=0;exitPerimeter=0;" edge="1" parent="1" source="drFdQ-J8PyUqmCF1jSi9-28" target="drFdQ-J8PyUqmCF1jSi9-2">
          <mxGeometry relative="1" as="geometry" />
        </mxCell>
        <mxCell id="drFdQ-J8PyUqmCF1jSi9-28" value="" style="sketch=0;points=[[0,0,0],[0.25,0,0],[0.5,0,0],[0.75,0,0],[1,0,0],[0,1,0],[0.25,1,0],[0.5,1,0],[0.75,1,0],[1,1,0],[0,0.25,0],[0,0.5,0],[0,0.75,0],[1,0.25,0],[1,0.5,0],[1,0.75,0]];outlineConnect=0;fontColor=#232F3E;gradientColor=#F78E04;gradientDirection=north;fillColor=#D05C17;strokeColor=#ffffff;dashed=0;verticalLabelPosition=bottom;verticalAlign=top;align=center;html=1;fontSize=12;fontStyle=0;aspect=fixed;shape=mxgraph.aws4.resourceIcon;resIcon=mxgraph.aws4.ec2;" vertex="1" parent="1">
          <mxGeometry x="90" y="544" width="78" height="78" as="geometry" />
        </mxCell>
        <mxCell id="drFdQ-J8PyUqmCF1jSi9-29" value="charadb-vis01" style="text;strokeColor=none;align=center;fillColor=none;html=1;verticalAlign=middle;whiteSpace=wrap;rounded=0;" vertex="1" parent="1">
          <mxGeometry x="59" y="622" width="140" height="30" as="geometry" />
        </mxCell>
        <mxCell id="drFdQ-J8PyUqmCF1jSi9-30" value="charadb-ip-w01" style="text;strokeColor=none;align=center;fillColor=none;html=1;verticalAlign=middle;whiteSpace=wrap;rounded=0;" vertex="1" parent="1">
          <mxGeometry x="299" y="690" width="140" height="30" as="geometry" />
        </mxCell>
        <mxCell id="drFdQ-J8PyUqmCF1jSi9-32" value="charadb-ip-graphdb01" style="text;html=1;align=center;verticalAlign=middle;resizable=0;points=[];autosize=1;strokeColor=none;fillColor=none;" vertex="1" parent="1">
          <mxGeometry x="295" y="558" width="140" height="30" as="geometry" />
        </mxCell>
        <mxCell id="drFdQ-J8PyUqmCF1jSi9-50" style="edgeStyle=orthogonalEdgeStyle;rounded=0;orthogonalLoop=1;jettySize=auto;html=1;exitX=0;exitY=0.5;exitDx=0;exitDy=0;exitPerimeter=0;entryX=0.75;entryY=0;entryDx=0;entryDy=0;entryPerimeter=0;" edge="1" parent="1" source="drFdQ-J8PyUqmCF1jSi9-33" target="drFdQ-J8PyUqmCF1jSi9-9">
          <mxGeometry relative="1" as="geometry" />
        </mxCell>
        <mxCell id="drFdQ-J8PyUqmCF1jSi9-33" value="" style="sketch=0;points=[[0,0,0],[0.25,0,0],[0.5,0,0],[0.75,0,0],[1,0,0],[0,1,0],[0.25,1,0],[0.5,1,0],[0.75,1,0],[1,1,0],[0,0.25,0],[0,0.5,0],[0,0.75,0],[1,0.25,0],[1,0.5,0],[1,0.75,0]];outlineConnect=0;fontColor=#232F3E;gradientColor=#945DF2;gradientDirection=north;fillColor=#5A30B5;strokeColor=#ffffff;dashed=0;verticalLabelPosition=bottom;verticalAlign=top;align=center;html=1;fontSize=12;fontStyle=0;aspect=fixed;shape=mxgraph.aws4.resourceIcon;resIcon=mxgraph.aws4.cloudfront;" vertex="1" parent="1">
          <mxGeometry x="696" y="460" width="78" height="78" as="geometry" />
        </mxCell>
        <mxCell id="drFdQ-J8PyUqmCF1jSi9-34" value="ip-admin.charaos.com" style="text;html=1;align=center;verticalAlign=middle;resizable=0;points=[];autosize=1;strokeColor=none;fillColor=none;" vertex="1" parent="1">
          <mxGeometry x="665" y="538" width="140" height="30" as="geometry" />
        </mxCell>
        <mxCell id="drFdQ-J8PyUqmCF1jSi9-35" value="ip-admin.charaos.com" style="text;html=1;align=center;verticalAlign=middle;resizable=0;points=[];autosize=1;strokeColor=none;fillColor=none;" vertex="1" parent="1">
          <mxGeometry x="650" y="823" width="140" height="30" as="geometry" />
        </mxCell>
        <mxCell id="drFdQ-J8PyUqmCF1jSi9-36" value="" style="sketch=0;points=[[0,0,0],[0.25,0,0],[0.5,0,0],[0.75,0,0],[1,0,0],[0,1,0],[0.25,1,0],[0.5,1,0],[0.75,1,0],[1,1,0],[0,0.25,0],[0,0.5,0],[0,0.75,0],[1,0.25,0],[1,0.5,0],[1,0.75,0]];outlineConnect=0;fontColor=#232F3E;gradientColor=#945DF2;gradientDirection=north;fillColor=#5A30B5;strokeColor=#ffffff;dashed=0;verticalLabelPosition=bottom;verticalAlign=top;align=center;html=1;fontSize=12;fontStyle=0;aspect=fixed;shape=mxgraph.aws4.resourceIcon;resIcon=mxgraph.aws4.elastic_load_balancing;" vertex="1" parent="1">
          <mxGeometry x="181" y="740" width="78" height="78" as="geometry" />
        </mxCell>
        <mxCell id="drFdQ-J8PyUqmCF1jSi9-37" value="charadb-vis-alb01" style="text;html=1;align=center;verticalAlign=middle;resizable=0;points=[];autosize=1;strokeColor=none;fillColor=none;" vertex="1" parent="1">
          <mxGeometry x="160" y="818" width="120" height="30" as="geometry" />
        </mxCell>
      </root>
    </mxGraphModel>
  </diagram>
</mxfile>
